<svg width="19" height="18" viewBox="0 0 19 18" fill="none" xmlns="http://www.w3.org/2000/svg">
<path d="M3.44866 11.475C3.04866 11.6917 2.62366 11.7375 2.17366 11.6125C1.72366 11.4875 1.38199 11.2333 1.14866 10.85C0.865327 10.3667 0.815327 9.86667 0.998661 9.35C1.18199 8.83333 1.54033 8.48333 2.07366 8.3L10.4987 5.5L11.3987 7.275L3.44866 11.475ZM3.99866 18V12.325L12.7237 7.725L12.2987 6.85L17.9987 4L18.8987 5.8L11.9987 11V18H3.99866ZM5.49866 7C4.53199 7 3.70699 6.65833 3.02366 5.975C2.34033 5.29167 1.99866 4.46667 1.99866 3.5C1.99866 2.53333 2.34033 1.70833 3.02366 1.025C3.70699 0.341667 4.53199 0 5.49866 0C6.46533 0 7.29033 0.341667 7.97366 1.025C8.65699 1.70833 8.99866 2.53333 8.99866 3.5C8.99866 4.46667 8.65699 5.29167 7.97366 5.975C7.29033 6.65833 6.46533 7 5.49866 7Z" fill="#ccc"/>
</svg>
